<svg width="36" height="36" viewBox="0 0 36 36" fill="none" xmlns="http://www.w3.org/2000/svg">
<mask id="path-1-inside-1_1863_41532" fill="white">
<path fill-rule="evenodd" clip-rule="evenodd" d="M27.9231 24.0409V15.4592C27.9231 9.73803 26.522 8.30774 20.9176 8.30774H15.3132C9.70878 8.30774 8.30768 9.73803 8.30768 15.4592V24.0409C8.30768 29.7621 9.70878 31.1924 15.3132 31.1924H20.9176C26.522 31.1924 27.9231 29.7621 27.9231 24.0409ZM18.5143 14.4986C18.7738 14.1757 18.7223 13.7037 18.3994 13.4442C18.0765 13.1848 17.6044 13.2362 17.345 13.5591L14.472 17.1349C14.4528 17.1588 14.435 17.1839 14.4189 17.21C13.474 18.7375 14.6895 20.5 16.364 20.5H19.8602C20.496 20.5 20.7549 21.0632 20.5682 21.4564L17.3749 24.9665C17.0961 25.2729 17.1186 25.7472 17.4249 26.026C17.7313 26.3047 18.2057 26.2823 18.4844 25.9759L21.7374 22.4002C21.7704 22.364 21.7997 22.3246 21.825 22.2827C22.7431 20.7594 21.5367 19 19.8602 19H16.364C15.7155 19 15.4672 18.4209 15.6761 18.0311L18.5143 14.4986Z"/>
</mask>
<path fill-rule="evenodd" clip-rule="evenodd" d="M27.9231 24.0409V15.4592C27.9231 9.73803 26.522 8.30774 20.9176 8.30774H15.3132C9.70878 8.30774 8.30768 9.73803 8.30768 15.4592V24.0409C8.30768 29.7621 9.70878 31.1924 15.3132 31.1924H20.9176C26.522 31.1924 27.9231 29.7621 27.9231 24.0409ZM18.5143 14.4986C18.7738 14.1757 18.7223 13.7037 18.3994 13.4442C18.0765 13.1848 17.6044 13.2362 17.345 13.5591L14.472 17.1349C14.4528 17.1588 14.435 17.1839 14.4189 17.21C13.474 18.7375 14.6895 20.5 16.364 20.5H19.8602C20.496 20.5 20.7549 21.0632 20.5682 21.4564L17.3749 24.9665C17.0961 25.2729 17.1186 25.7472 17.4249 26.026C17.7313 26.3047 18.2057 26.2823 18.4844 25.9759L21.7374 22.4002C21.7704 22.364 21.7997 22.3246 21.825 22.2827C22.7431 20.7594 21.5367 19 19.8602 19H16.364C15.7155 19 15.4672 18.4209 15.6761 18.0311L18.5143 14.4986Z" fill="url(#paint0_radial_1863_41532)" fill-opacity="0.2"/>
<path fill-rule="evenodd" clip-rule="evenodd" d="M27.9231 24.0409V15.4592C27.9231 9.73803 26.522 8.30774 20.9176 8.30774H15.3132C9.70878 8.30774 8.30768 9.73803 8.30768 15.4592V24.0409C8.30768 29.7621 9.70878 31.1924 15.3132 31.1924H20.9176C26.522 31.1924 27.9231 29.7621 27.9231 24.0409ZM18.5143 14.4986C18.7738 14.1757 18.7223 13.7037 18.3994 13.4442C18.0765 13.1848 17.6044 13.2362 17.345 13.5591L14.472 17.1349C14.4528 17.1588 14.435 17.1839 14.4189 17.21C13.474 18.7375 14.6895 20.5 16.364 20.5H19.8602C20.496 20.5 20.7549 21.0632 20.5682 21.4564L17.3749 24.9665C17.0961 25.2729 17.1186 25.7472 17.4249 26.026C17.7313 26.3047 18.2057 26.2823 18.4844 25.9759L21.7374 22.4002C21.7704 22.364 21.7997 22.3246 21.825 22.2827C22.7431 20.7594 21.5367 19 19.8602 19H16.364C15.7155 19 15.4672 18.4209 15.6761 18.0311L18.5143 14.4986Z" fill="white" fill-opacity="0.1"/>
<path d="M18.3994 13.4442L18.0549 13.873L18.0549 13.873L18.3994 13.4442ZM18.5143 14.4986L18.0856 14.1542L18.0856 14.1542L18.5143 14.4986ZM17.345 13.5591L16.9162 13.2147L16.9162 13.2147L17.345 13.5591ZM14.472 17.1349L14.9008 17.4793L14.9008 17.4793L14.472 17.1349ZM14.4189 17.21L14.8866 17.4994L14.8866 17.4994L14.4189 17.21ZM20.5682 21.4564L20.975 21.8265C21.0115 21.7864 21.0418 21.7412 21.065 21.6923L20.5682 21.4564ZM17.3749 24.9665L16.968 24.5964L16.968 24.5964L17.3749 24.9665ZM17.4249 26.026L17.7951 25.6191L17.7951 25.6191L17.4249 26.026ZM18.4844 25.9759L18.8913 26.346L18.8913 26.346L18.4844 25.9759ZM21.7374 22.4002L22.1442 22.7703L22.1442 22.7703L21.7374 22.4002ZM21.825 22.2827L21.3539 21.9987L21.3539 21.9987L21.825 22.2827ZM15.6761 18.0311L15.2473 17.6866C15.2261 17.7131 15.2073 17.7414 15.1913 17.7713L15.6761 18.0311ZM27.3731 15.4592V24.0409H28.4731V15.4592H27.3731ZM20.9176 8.85774C23.7222 8.85774 25.2533 9.22886 26.1291 10.1229C27.0088 11.0209 27.3731 12.5933 27.3731 15.4592H28.4731C28.4731 12.6039 28.1368 10.6006 26.9149 9.35315C25.689 8.10176 23.7173 7.75774 20.9176 7.75774V8.85774ZM15.3132 8.85774H20.9176V7.75774H15.3132V8.85774ZM8.85768 15.4592C8.85768 12.5933 9.22199 11.0209 10.1017 10.1229C10.9775 9.22886 12.5085 8.85774 15.3132 8.85774V7.75774C12.5134 7.75774 10.5417 8.10176 9.31588 9.35315C8.09392 10.6006 7.75768 12.6039 7.75768 15.4592H8.85768ZM8.85768 24.0409V15.4592H7.75768V24.0409H8.85768ZM15.3132 30.6424C12.5085 30.6424 10.9775 30.2712 10.1017 29.3772C9.22199 28.4792 8.85768 26.9068 8.85768 24.0409H7.75768C7.75768 26.8962 8.09392 28.8995 9.31588 30.1469C10.5417 31.3983 12.5134 31.7424 15.3132 31.7424V30.6424ZM20.9176 30.6424H15.3132V31.7424H20.9176V30.6424ZM27.3731 24.0409C27.3731 26.9068 27.0088 28.4792 26.1291 29.3772C25.2533 30.2712 23.7222 30.6424 20.9176 30.6424V31.7424C23.7173 31.7424 25.689 31.3983 26.9149 30.1469C28.1368 28.8995 28.4731 26.8962 28.4731 24.0409H27.3731ZM18.0549 13.873C18.141 13.9422 18.1547 14.0681 18.0856 14.1542L18.9431 14.8431C19.3928 14.2834 19.3036 13.4652 18.7439 13.0155L18.0549 13.873ZM17.7737 13.9036C17.8429 13.8175 17.9688 13.8038 18.0549 13.873L18.7439 13.0155C18.1842 12.5658 17.3659 12.655 16.9162 13.2147L17.7737 13.9036ZM14.9008 17.4793L17.7737 13.9036L16.9162 13.2147L14.0433 16.7904L14.9008 17.4793ZM14.8866 17.4994C14.8909 17.4924 14.8957 17.4857 14.9008 17.4793L14.0433 16.7904C14.0099 16.8319 13.9792 16.8754 13.9511 16.9207L14.8866 17.4994ZM16.364 19.95C15.7233 19.95 15.1738 19.6131 14.8754 19.1361C14.5838 18.6699 14.5318 18.0729 14.8866 17.4994L13.9511 16.9207C13.3611 17.8745 13.4444 18.9226 13.9429 19.7195C14.4347 20.5057 15.3302 21.05 16.364 21.05V19.95ZM19.8602 19.95H16.364V21.05H19.8602V19.95ZM21.065 21.6923C21.4268 20.9304 20.8958 19.95 19.8602 19.95V21.05C19.9364 21.05 19.982 21.0665 20.0069 21.0797C20.0323 21.0932 20.0482 21.1097 20.0586 21.126C20.0832 21.1647 20.0794 21.2036 20.0713 21.2205L21.065 21.6923ZM17.7817 25.3366L20.975 21.8265L20.1613 21.0863L16.968 24.5964L17.7817 25.3366ZM17.7951 25.6191C17.7134 25.5448 17.7074 25.4183 17.7817 25.3366L16.968 24.5964C16.4849 25.1275 16.5238 25.9497 17.0548 26.4328L17.7951 25.6191ZM18.0776 25.6058C18.0033 25.6875 17.8768 25.6935 17.7951 25.6191L17.0548 26.4328C17.5859 26.916 18.4081 26.8771 18.8913 26.346L18.0776 25.6058ZM21.3306 22.0301L18.0776 25.6058L18.8913 26.346L22.1442 22.7703L21.3306 22.0301ZM21.3539 21.9987C21.3472 22.0099 21.3394 22.0204 21.3306 22.0301L22.1442 22.7703C22.2014 22.7075 22.2522 22.6393 22.296 22.5666L21.3539 21.9987ZM19.8602 19.55C21.1801 19.55 22.0152 20.9016 21.3539 21.9987L22.296 22.5666C23.471 20.6173 21.8933 18.45 19.8602 18.45V19.55ZM16.364 19.55H19.8602V18.45H16.364V19.55ZM15.1913 17.7713C14.7831 18.5331 15.3061 19.55 16.364 19.55V18.45C16.2851 18.45 16.2396 18.4329 16.216 18.4201C16.192 18.4071 16.178 18.3918 16.1692 18.3772C16.1478 18.3419 16.1525 18.3065 16.1609 18.2909L15.1913 17.7713ZM18.0856 14.1542L15.2473 17.6866L16.1048 18.3756L18.9431 14.8431L18.0856 14.1542Z" fill="url(#paint1_radial_1863_41532)" fill-opacity="0.1" mask="url(#path-1-inside-1_1863_41532)"/>
<path d="M14.7692 7.03845C14.7692 5.53845 15.3692 5.53845 16.5692 5.53845L18.9692 5.53845C20.1692 5.53845 20.7692 5.53845 20.7692 7.03845" stroke="url(#paint2_radial_1863_41532)" stroke-width="1.5" stroke-linecap="round" stroke-linejoin="round"/>
<defs>
<radialGradient id="paint0_radial_1863_41532" cx="0" cy="0" r="1" gradientUnits="userSpaceOnUse" gradientTransform="translate(10.1384 28.468) rotate(-41.8675) scale(23.2673 228.574)">
<stop stop-color="#7352FF"/>
<stop offset="1" stop-color="#16CBE1"/>
</radialGradient>
<radialGradient id="paint1_radial_1863_41532" cx="0" cy="0" r="1" gradientUnits="userSpaceOnUse" gradientTransform="translate(10.1384 28.468) rotate(-41.8675) scale(23.2673 228.574)">
<stop stop-color="#7352FF"/>
<stop offset="1" stop-color="#16CBE1"/>
</radialGradient>
<radialGradient id="paint2_radial_1863_41532" cx="0" cy="0" r="1" gradientUnits="userSpaceOnUse" gradientTransform="translate(20.0549 6.89845) rotate(-161.973) scale(4.28161 24.904)">
<stop stop-color="#7352FF"/>
<stop offset="1" stop-color="#16CBE1"/>
</radialGradient>
</defs>
<script xmlns=""/></svg>